# xmcd CD database file
#
# Track frame offsets:
#	150
#	13425
#	24421
#	38632
#	54137
#	72002
#	83370
#	106477
#	119682
#	134951
#
# Disc length: 1986 seconds
#
# Revision: 0
# Processed by: cddbd v1.5.1PL2 Copyright (c) Steve Scherf et al.
# Submitted via: CDex 1.51
#
DISCID=8207c00a
DTITLE=Randy Kohrs and the Reel Deal - Now It's Empty
DYEAR=2003
DGENRE=Country
TTITLE0=You Never Cared About Me
TTITLE1=If The Back Door Could Talk
TTITLE2=Just One More
TTITLE3=Kiss You Hello
TTITLE4=Now It's Empty
TTITLE5=You're Preserving Your Wild-Life
TTITLE6=The Lucky and The Lonely
TTITLE7=Talk To Me Old Lonesome Heart
TTITLE8=Blues Plus Booze (Means I Lose)
TTITLE9=I'm Still Awake
EXTD=YEAR: 2003
EXTT0=
EXTT1=
EXTT2=
EXTT3=
EXTT4=
EXTT5=
EXTT6=
EXTT7=
EXTT8=
EXTT9=
PLAYORDER=
